<svg width="48" height="49" viewBox="0 0 48 49" fill="none" xmlns="http://www.w3.org/2000/svg">
<rect y="0.5" width="48" height="48" rx="24" fill="white" fill-opacity="0.05"/>
<path d="M28.1665 16.166H19.8332C17.532 16.166 15.6665 18.0315 15.6665 20.3327V28.666C15.6665 30.9672 17.532 32.8327 19.8332 32.8327H28.1665C30.4677 32.8327 32.3332 30.9672 32.3332 28.666V20.3327C32.3332 18.0315 30.4677 16.166 28.1665 16.166Z" stroke="white" stroke-width="1.66667" stroke-linecap="round" stroke-linejoin="round"/>
<path d="M27.3333 23.9753C27.4361 24.6688 27.3176 25.3771 26.9947 25.9994C26.6718 26.6218 26.1609 27.1264 25.5346 27.4416C24.9083 27.7569 24.1986 27.8666 23.5064 27.7552C22.8142 27.6438 22.1747 27.317 21.679 26.8212C21.1832 26.3255 20.8564 25.686 20.745 24.9938C20.6336 24.3015 20.7433 23.5918 21.0585 22.9656C21.3737 22.3393 21.8784 21.8284 22.5007 21.5055C23.1231 21.1825 23.8314 21.0641 24.5249 21.1669C25.2324 21.2718 25.8873 21.6015 26.393 22.1072C26.8987 22.6129 27.2283 23.2678 27.3333 23.9753Z" stroke="white" stroke-width="1.66667" stroke-linecap="round" stroke-linejoin="round"/>
<path d="M28.5835 19.916H28.5918" stroke="white" stroke-width="1.66667" stroke-linecap="round" stroke-linejoin="round"/>
</svg>
