<svg width="48" height="49" viewBox="0 0 48 49" fill="none" xmlns="http://www.w3.org/2000/svg">
<rect y="0.5" width="48" height="48" rx="24" fill="white" fill-opacity="0.05"/>
<path d="M27.3335 21.166C28.6596 21.166 29.9313 21.6928 30.869 22.6305C31.8067 23.5682 32.3335 24.8399 32.3335 26.166V31.9993H29.0002V26.166C29.0002 25.724 28.8246 25.3001 28.512 24.9875C28.1994 24.6749 27.7755 24.4993 27.3335 24.4993C26.8915 24.4993 26.4675 24.6749 26.155 24.9875C25.8424 25.3001 25.6668 25.724 25.6668 26.166V31.9993H22.3335V26.166C22.3335 24.8399 22.8603 23.5682 23.798 22.6305C24.7356 21.6928 26.0074 21.166 27.3335 21.166Z" stroke="white" stroke-width="1.66667" stroke-linecap="round" stroke-linejoin="round"/>
<path d="M18.9998 22H15.6665V32H18.9998V22Z" stroke="white" stroke-width="1.66667" stroke-linecap="round" stroke-linejoin="round"/>
<path d="M17.3332 19.4993C18.2536 19.4993 18.9998 18.7532 18.9998 17.8327C18.9998 16.9122 18.2536 16.166 17.3332 16.166C16.4127 16.166 15.6665 16.9122 15.6665 17.8327C15.6665 18.7532 16.4127 19.4993 17.3332 19.4993Z" stroke="white" stroke-width="1.66667" stroke-linecap="round" stroke-linejoin="round"/>
</svg>
